Coordinates
version=1
nRows=17
nColumns=33
inDegrees=yes

Units are S.I. units (second, meters, Newtons, ...)
Angles are in degrees.

endheader
time	ground_thorax_rot_x	ground_thorax_rot_y	ground_thorax_rot_z	ground_thorax_tx	ground_thorax_ty	ground_thorax_tz	clav_prot_r	clav_elev_r	scapula_abduction_r	scapula_elevation_r	scapula_upward_rot_r	scapula_winging_r	shoulder_elv_r	plane_of_elev_r	axial_rot_r	elbow_flexion_r	pro_sup_r	wrist_flex_r	wrist_dev_r	clav_prot_l	clav_elev_l	scapula_abduction_l	scapula_elevation_l	scapula_upward_rot_l	scapula_winging_l	shoulder_elv_l	plane_of_elev_l	axial_rot_l	elbow_flexion_l	pro_sup_l	wrist_flex_l	wrist_dev_l	
6.4900	39.868520	5.726252	4.673785	-55.695871	787.356345	1.629376	14.814396	42.361920	45.000000	42.980451	-20.151619	280.530037	-3713.961699	145.529462	-169.007807	1445.859616	30.402402	16.702212	14.235778	7.063946	-45.000000	-45.000000	45.000000	-12.035997	1523.463679	-1177.823567	132.386789	-147.546479	-359.775693	-318.115688	12.504401	-19.579119	
6.5000	39.895948	5.541518	4.509340	-55.492123	787.479195	1.809143	14.844004	42.454956	45.000000	43.050901	-20.056137	280.557661	-3713.925874	145.515163	-169.391802	1445.873468	30.616657	16.691666	14.257412	6.928067	-45.000000	-45.000000	45.000000	-11.728539	1523.460599	-1177.834475	132.382148	-147.570030	-359.801829	-317.778493	12.460574	-19.596243	
6.5100	39.927523	5.351806	4.341124	-55.355734	787.609410	1.986846	14.889091	42.580297	45.000000	43.130619	-19.982810	280.552505	-3713.893718	145.469225	-169.728915	1445.920679	30.819657	16.622321	14.289632	6.767589	-45.000000	-45.000000	45.000000	-11.449882	1523.419998	-1177.828077	132.423439	-147.576654	-359.779485	-317.469959	12.405642	-19.588591	
6.5200	39.948155	5.183505	4.220417	-55.365588	787.756045	2.163567	14.883348	42.628968	45.000000	43.185354	-19.908846	280.532703	-3713.852299	145.439778	-169.970914	1445.969743	30.972455	16.625539	14.303029	6.651087	-45.000000	-45.000000	45.000000	-11.209937	1523.440443	-1177.809943	132.434979	-147.550241	-359.786904	-317.240568	12.373163	-19.608899	
6.5300	39.963224	5.029778	4.135045	-55.533225	787.921792	2.335844	14.852968	42.652019	45.000000	43.234886	-19.847888	280.498458	-3713.804996	145.422081	-170.113181	1446.042786	31.072024	16.658634	14.303083	6.561123	-45.000000	-45.000000	45.000000	-11.011747	1523.506965	-1177.779452	132.430176	-147.501538	-359.796670	-317.087228	12.353570	-19.642173	
6.5400	39.973802	4.892141	4.081858	-55.881396	788.111774	2.500802	14.807529	42.647663	45.000000	43.288148	-19.810484	280.438491	-3713.756811	145.403592	-170.145720	1446.146657	31.110542	16.709062	14.291624	6.488758	-45.000000	-45.000000	45.000000	-10.862032	1523.598319	-1177.733425	132.430031	-147.436473	-359.793795	-317.017115	12.341685	-19.683778	
6.5500	39.985477	4.768358	4.058114	-56.415436	788.330567	2.654841	14.762122	42.658744	45.000000	43.365644	-19.809404	280.375565	-3713.705246	145.401242	-170.081029	1446.291450	31.079001	16.775646	14.262219	6.438695	-45.000000	-45.000000	45.000000	-10.759622	1523.731239	-1177.683574	132.418628	-147.369483	-359.773383	-317.028457	12.335650	-19.736865	
6.5600	39.997046	4.659154	4.056051	-57.133542	788.583609	2.794920	14.731976	42.680557	45.000000	43.468567	-19.853845	280.294245	-3713.652131	145.396332	-169.932902	1446.478121	30.979399	16.835554	14.221393	6.394677	-45.000000	-45.000000	45.000000	-10.702481	1523.873339	-1177.625506	132.422582	-147.316236	-359.717855	-317.115237	12.326264	-19.792274	
6.5700	40.011791	4.563277	4.079028	-58.035566	788.877911	2.919042	14.718234	42.748042	45.000000	43.606841	-19.951874	280.223190	-3713.586184	145.406263	-169.721888	1446.703403	30.806228	16.904198	14.158546	6.369958	-45.000000	-45.000000	45.000000	-10.690883	1524.046257	-1177.568707	132.421109	-147.294104	-359.641443	-317.275254	12.315534	-19.857357	
6.5800	40.024835	4.481394	4.125219	-59.122665	789.221787	3.026108	14.722251	42.842699	45.000000	43.770332	-20.105322	280.145151	-3713.505789	145.411337	-169.459848	1446.960184	30.565726	16.969147	14.079600	6.353287	-45.000000	-45.000000	45.000000	-10.724307	1524.224137	-1177.504623	132.439967	-147.320224	-359.535712	-317.505044	12.296809	-19.925805	
6.5900	40.029569	4.406628	4.199101	-60.397493	789.624407	3.115483	14.741363	42.945116	45.000000	43.942807	-20.292925	280.061770	-3713.411419	145.416370	-169.162157	1447.237582	30.263915	17.039454	13.982143	6.350640	-45.000000	-45.000000	45.000000	-10.786230	1524.440616	-1177.433075	132.454942	-147.416111	-359.415927	-317.797161	12.272021	-20.004419	
6.6000	40.026106	4.345447	4.299075	-61.864136	790.095454	3.187012	14.780594	43.071297	44.999999	44.124800	-20.528268	279.967774	-3713.297963	145.415191	-168.839362	1447.528543	29.905378	17.107739	13.864890	6.358011	-45.000000	-44.999999	45.000000	-10.880907	1524.671732	-1177.348674	132.486228	-147.602039	-359.275246	-318.147574	12.234633	-20.087587	
6.6100	40.014512	4.292790	4.422029	-63.528028	790.644432	3.240792	14.830270	43.222711	44.999999	44.312989	-20.805028	279.869632	-3713.162207	145.413431	-168.499199	1447.829105	29.496548	17.177935	13.726358	6.375314	-45.000000	-44.999999	45.000000	-10.998121	1524.928794	-1177.255805	132.527143	-147.894714	-359.118786	-318.547637	12.183332	-20.178486	
6.6200	39.994191	4.252655	4.566563	-65.395396	791.279790	3.277066	14.888023	43.403678	44.999998	44.506232	-21.128600	279.762762	-3713.002408	145.412645	-168.144426	1448.138913	29.043384	17.248615	13.566166	6.398638	-45.000000	-44.999998	45.000000	-11.135233	1525.199254	-1177.156583	132.591294	-148.303961	-358.934614	-318.990910	12.112327	-20.276329	
6.6300	39.955422	4.218231	4.732862	-67.472865	792.008213	3.296239	14.939192	43.548811	44.999996	44.673187	-21.460168	279.626881	-3712.825408	145.412543	-167.773074	1448.451781	28.560052	17.325894	13.390385	6.421559	-45.000000	-44.999997	45.000000	-11.263014	1525.506840	-1177.053058	132.665912	-148.828363	-358.728961	-319.463123	12.022369	-20.387622	
6.6400	39.901701	4.196223	4.921549	-69.767205	792.834028	3.298933	14.984293	43.683194	44.999992	44.817215	-21.807803	279.464829	-3712.625403	145.422241	-167.382906	1448.770344	28.052323	17.408755	13.195068	6.444252	-45.000000	-44.999995	45.000000	-11.384523	1525.840318	-1176.949854	132.759209	-149.455281	-358.496533	-319.957171	11.910593	-20.509974	
6.6500	39.826034	4.183133	5.133462	-72.284824	793.758920	3.285969	15.015640	43.756504	44.999986	44.916994	-22.145355	279.262652	-3712.409702	145.438152	-166.969150	1449.086829	27.530431	17.500120	12.985464	6.463833	-45.000000	-44.999990	45.000000	-11.486896	1526.212102	-1176.843152	132.862737	-150.166386	-358.250864	-320.463093	11.780617	-20.644793	
